<mxfile host="app.diagrams.net" modified="2021-07-04T07:06:29.385Z" agent="5.0 (Windows)" etag="KFWykP_KceG8c3YbMZ_G" version="14.8.3" type="github">
  <diagram id="C5RBs43oDa-KdzZeNtuy" name="Page-1">
    <mxGraphModel dx="486" dy="514" grid="1" gridSize="10" guides="1" tooltips="1" connect="1" arrows="1" fold="1" page="1" pageScale="1" pageWidth="827" pageHeight="1169" math="0" shadow="0">
      <root>
        <mxCell id="WIyWlLk6GJQsqaUBKTNV-0" />
        <mxCell id="WIyWlLk6GJQsqaUBKTNV-1" parent="WIyWlLk6GJQsqaUBKTNV-0" />
        <mxCell id="6Dw54kf7_JVBfBKS8t4E-17" value="" style="group" vertex="1" connectable="0" parent="WIyWlLk6GJQsqaUBKTNV-1">
          <mxGeometry x="40" y="30" width="250" height="340" as="geometry" />
        </mxCell>
        <mxCell id="WIyWlLk6GJQsqaUBKTNV-3" value="Start" style="rounded=1;whiteSpace=wrap;html=1;fontSize=12;glass=0;strokeWidth=1;shadow=0;" parent="6Dw54kf7_JVBfBKS8t4E-17" vertex="1">
          <mxGeometry x="15" width="70" height="20" as="geometry" />
        </mxCell>
        <mxCell id="WIyWlLk6GJQsqaUBKTNV-6" value="True?" style="rhombus;whiteSpace=wrap;html=1;shadow=0;fontFamily=Helvetica;fontSize=12;align=center;strokeWidth=1;spacing=6;spacingTop=-4;" parent="6Dw54kf7_JVBfBKS8t4E-17" vertex="1">
          <mxGeometry y="50" width="100" height="80" as="geometry" />
        </mxCell>
        <mxCell id="WIyWlLk6GJQsqaUBKTNV-2" value="" style="rounded=0;html=1;jettySize=auto;orthogonalLoop=1;fontSize=11;endArrow=block;endFill=0;endSize=8;strokeWidth=1;shadow=0;labelBackgroundColor=none;edgeStyle=orthogonalEdgeStyle;" parent="6Dw54kf7_JVBfBKS8t4E-17" source="WIyWlLk6GJQsqaUBKTNV-3" target="WIyWlLk6GJQsqaUBKTNV-6" edge="1">
          <mxGeometry relative="1" as="geometry" />
        </mxCell>
        <mxCell id="6Dw54kf7_JVBfBKS8t4E-0" value="print(&#39;Type your name:&#39;)" style="rounded=0;whiteSpace=wrap;html=1;" vertex="1" parent="6Dw54kf7_JVBfBKS8t4E-17">
          <mxGeometry x="120" y="77.5" width="130" height="25" as="geometry" />
        </mxCell>
        <mxCell id="6Dw54kf7_JVBfBKS8t4E-2" value="name=&#39;toto&#39;" style="rhombus;whiteSpace=wrap;html=1;shadow=0;fontFamily=Helvetica;fontSize=12;align=center;strokeWidth=1;spacing=6;spacingTop=-4;" vertex="1" parent="6Dw54kf7_JVBfBKS8t4E-17">
          <mxGeometry x="135" y="170" width="100" height="80" as="geometry" />
        </mxCell>
        <mxCell id="6Dw54kf7_JVBfBKS8t4E-1" value="name=input()" style="rounded=0;whiteSpace=wrap;html=1;" vertex="1" parent="6Dw54kf7_JVBfBKS8t4E-17">
          <mxGeometry x="120" y="120" width="130" height="30" as="geometry" />
        </mxCell>
        <mxCell id="6Dw54kf7_JVBfBKS8t4E-4" value="break" style="rounded=0;whiteSpace=wrap;html=1;" vertex="1" parent="6Dw54kf7_JVBfBKS8t4E-17">
          <mxGeometry x="120" y="270" width="130" height="30" as="geometry" />
        </mxCell>
        <mxCell id="6Dw54kf7_JVBfBKS8t4E-5" value="" style="ellipse;whiteSpace=wrap;html=1;aspect=fixed;" vertex="1" parent="6Dw54kf7_JVBfBKS8t4E-17">
          <mxGeometry x="40" y="275" width="20" height="20" as="geometry" />
        </mxCell>
        <mxCell id="6Dw54kf7_JVBfBKS8t4E-6" value="" style="rounded=0;html=1;jettySize=auto;orthogonalLoop=1;fontSize=11;endArrow=block;endFill=0;endSize=8;strokeWidth=1;shadow=0;labelBackgroundColor=none;edgeStyle=orthogonalEdgeStyle;entryX=0;entryY=0.5;entryDx=0;entryDy=0;exitX=1;exitY=0.5;exitDx=0;exitDy=0;" edge="1" parent="6Dw54kf7_JVBfBKS8t4E-17" source="WIyWlLk6GJQsqaUBKTNV-6" target="6Dw54kf7_JVBfBKS8t4E-0">
          <mxGeometry relative="1" as="geometry">
            <mxPoint x="60.02857142857147" y="30" as="sourcePoint" />
            <mxPoint x="60.02857142857147" y="60.022857142857106" as="targetPoint" />
          </mxGeometry>
        </mxCell>
        <mxCell id="6Dw54kf7_JVBfBKS8t4E-7" value="" style="rounded=0;html=1;jettySize=auto;orthogonalLoop=1;fontSize=11;endArrow=block;endFill=0;endSize=8;strokeWidth=1;shadow=0;labelBackgroundColor=none;edgeStyle=orthogonalEdgeStyle;entryX=0.5;entryY=0;entryDx=0;entryDy=0;exitX=0.5;exitY=1;exitDx=0;exitDy=0;" edge="1" parent="6Dw54kf7_JVBfBKS8t4E-17" source="6Dw54kf7_JVBfBKS8t4E-0" target="6Dw54kf7_JVBfBKS8t4E-1">
          <mxGeometry relative="1" as="geometry">
            <mxPoint x="60.02857142857147" y="30" as="sourcePoint" />
            <mxPoint x="60.02857142857147" y="60.022857142857106" as="targetPoint" />
            <Array as="points">
              <mxPoint x="185" y="120" />
              <mxPoint x="185" y="120" />
            </Array>
          </mxGeometry>
        </mxCell>
        <mxCell id="6Dw54kf7_JVBfBKS8t4E-8" value="" style="rounded=0;html=1;jettySize=auto;orthogonalLoop=1;fontSize=11;endArrow=block;endFill=0;endSize=8;strokeWidth=1;shadow=0;labelBackgroundColor=none;edgeStyle=orthogonalEdgeStyle;entryX=0.5;entryY=0;entryDx=0;entryDy=0;" edge="1" parent="6Dw54kf7_JVBfBKS8t4E-17" target="6Dw54kf7_JVBfBKS8t4E-2">
          <mxGeometry relative="1" as="geometry">
            <mxPoint x="185" y="150" as="sourcePoint" />
            <mxPoint x="195" y="130" as="targetPoint" />
            <Array as="points">
              <mxPoint x="185" y="170" />
              <mxPoint x="185" y="170" />
            </Array>
          </mxGeometry>
        </mxCell>
        <mxCell id="6Dw54kf7_JVBfBKS8t4E-9" value="" style="rounded=0;html=1;jettySize=auto;orthogonalLoop=1;fontSize=11;endArrow=block;endFill=0;endSize=8;strokeWidth=1;shadow=0;labelBackgroundColor=none;edgeStyle=orthogonalEdgeStyle;entryX=0.5;entryY=0;entryDx=0;entryDy=0;" edge="1" parent="6Dw54kf7_JVBfBKS8t4E-17" target="6Dw54kf7_JVBfBKS8t4E-4">
          <mxGeometry relative="1" as="geometry">
            <mxPoint x="185" y="250" as="sourcePoint" />
            <mxPoint x="195" y="190" as="targetPoint" />
            <Array as="points" />
          </mxGeometry>
        </mxCell>
        <mxCell id="6Dw54kf7_JVBfBKS8t4E-10" value="" style="rounded=0;html=1;jettySize=auto;orthogonalLoop=1;fontSize=11;endArrow=block;endFill=0;endSize=8;strokeWidth=1;shadow=0;labelBackgroundColor=none;edgeStyle=orthogonalEdgeStyle;entryX=1;entryY=0.5;entryDx=0;entryDy=0;exitX=0;exitY=0.5;exitDx=0;exitDy=0;" edge="1" parent="6Dw54kf7_JVBfBKS8t4E-17" source="6Dw54kf7_JVBfBKS8t4E-4" target="6Dw54kf7_JVBfBKS8t4E-5">
          <mxGeometry relative="1" as="geometry">
            <mxPoint x="110" y="100" as="sourcePoint" />
            <mxPoint x="130" y="100" as="targetPoint" />
          </mxGeometry>
        </mxCell>
        <mxCell id="6Dw54kf7_JVBfBKS8t4E-11" value="" style="rounded=0;html=1;jettySize=auto;orthogonalLoop=1;fontSize=11;endArrow=block;endFill=0;endSize=8;strokeWidth=1;shadow=0;labelBackgroundColor=none;edgeStyle=orthogonalEdgeStyle;exitX=0;exitY=0.5;exitDx=0;exitDy=0;entryX=0.5;entryY=1;entryDx=0;entryDy=0;" edge="1" parent="6Dw54kf7_JVBfBKS8t4E-17" source="6Dw54kf7_JVBfBKS8t4E-2" target="WIyWlLk6GJQsqaUBKTNV-6">
          <mxGeometry relative="1" as="geometry">
            <mxPoint x="60.02857142857147" y="30" as="sourcePoint" />
            <mxPoint x="60.02857142857147" y="60.022857142857106" as="targetPoint" />
          </mxGeometry>
        </mxCell>
        <mxCell id="6Dw54kf7_JVBfBKS8t4E-12" value="" style="rounded=0;html=1;jettySize=auto;orthogonalLoop=1;fontSize=11;endArrow=block;endFill=0;endSize=8;strokeWidth=1;shadow=0;labelBackgroundColor=none;edgeStyle=orthogonalEdgeStyle;exitX=0.5;exitY=1;exitDx=0;exitDy=0;" edge="1" parent="6Dw54kf7_JVBfBKS8t4E-17" source="6Dw54kf7_JVBfBKS8t4E-5">
          <mxGeometry relative="1" as="geometry">
            <mxPoint x="50" y="320" as="targetPoint" />
          </mxGeometry>
        </mxCell>
        <mxCell id="6Dw54kf7_JVBfBKS8t4E-13" value="End" style="rounded=1;whiteSpace=wrap;html=1;fontSize=12;glass=0;strokeWidth=1;shadow=0;" vertex="1" parent="6Dw54kf7_JVBfBKS8t4E-17">
          <mxGeometry x="15" y="320" width="70" height="20" as="geometry" />
        </mxCell>
        <mxCell id="6Dw54kf7_JVBfBKS8t4E-15" value="Yes" style="text;html=1;strokeColor=none;fillColor=none;align=center;verticalAlign=middle;whiteSpace=wrap;rounded=0;" vertex="1" parent="6Dw54kf7_JVBfBKS8t4E-17">
          <mxGeometry x="190" y="240" width="40" height="20" as="geometry" />
        </mxCell>
        <mxCell id="6Dw54kf7_JVBfBKS8t4E-16" value="No" style="text;html=1;strokeColor=none;fillColor=none;align=center;verticalAlign=middle;whiteSpace=wrap;rounded=0;" vertex="1" parent="6Dw54kf7_JVBfBKS8t4E-17">
          <mxGeometry x="100" y="190" width="40" height="20" as="geometry" />
        </mxCell>
      </root>
    </mxGraphModel>
  </diagram>
</mxfile>
